<svg id="Capa_1" enable-background="new 0 0 512 512" height="512" viewBox="0 0 512 512" width="512" xmlns="http://www.w3.org/2000/svg"><g><g><path d="m51.57 73.14c-8.29 0-15 6.72-15 15v224.85c0 8.28 6.71 15 15 15h151.428l19.002-127.425-19.002-127.425z" fill="#ff5e94"/></g><path d="m321.012 73.149h-118.012v254.84h133.012v-239.84c0-8.29-6.72-15-15-15z" fill="#ff3980"/><path d="m501.981 368.416h-155.97c-5.523 0-10-4.477-10-10v-214.845h165.97c8.336 0 13.012 9.599 7.875 16.164l-70.518 90.095c-2.834 3.62-2.834 8.707 0 12.327l70.518 90.095c5.138 6.564.461 16.164-7.875 16.164z" fill="#ff5e94"/><path d="m51.567 73.145c-8.284 0-15 6.716-15 15v408.832c0 8.284 6.716 15 15 15s15-6.716 15-15v-408.832c0-8.285-6.715-15-15-15z" fill="#00ddc0"/><g fill="#ffea80"><path d="m86.312 481.977h-69.489c-8.284 0-15 6.716-15 15s6.716 15 15 15h69.488c8.284 0 15-6.716 15-15s-6.715-15-14.999-15z"/><path d="m103.13 51.573c0 13.79-5.35 26.75-15.09 36.48-10.05 10.06-23.26 15.08-36.47 15.08s-26.42-5.02-36.48-15.08c-9.73-9.73-15.09-22.69-15.09-36.48s5.36-26.74 15.09-36.47c10.06-10.05 23.27-15.08 36.48-15.08s26.41 5.03 36.47 15.08c9.74 9.73 15.09 22.68 15.09 36.47z"/></g></g></svg>